<svg xmlns="http://www.w3.org/2000/svg" viewBox="0 0 1920 705.956" fill="currentColor">
  <path
    d="M54.498 207.93c30.183 0 54.498-25.153 54.498-55.337 0-30.183-24.315-53.659-54.498-53.659C24.315 98.934 0 122.41 0 152.594c0 30.183 24.315 55.336 54.498 55.336zm0 316.925c30.183 0 54.498-24.314 54.498-54.498 0-30.183-24.315-53.659-54.498-53.659C24.315 416.698 0 440.174 0 470.358c0 30.183 24.315 54.497 54.498 54.497zm361.363 2.515c67.074 0 121.572-31.86 152.593-82.166v72.105h78.813V311.056c0-122.41-94.743-214.637-218.83-214.637-124.926 0-218.83 97.257-218.83 214.637 0 119.057 87.197 216.314 206.254 216.314zm12.576-78.812c-76.297 0-135.825-62.043-135.825-136.663 0-75.459 59.528-137.502 135.825-137.502 77.135 0 135.825 62.043 135.825 137.502 0 74.62-58.69 136.663-135.825 136.663zm524.855 79.65c30.183 0 62.882-9.222 83.843-23.475v-76.297c-20.123 14.253-49.468 24.314-76.297 24.314-49.467 0-81.328-31.86-81.328-85.52V178.586h157.625V106.48H879.51V0h-83.004v106.48H715.18v72.105h81.327v191.161c0 93.904 54.498 158.463 156.786 158.463zm373.101 0c30.184 0 62.882-9.222 83.843-23.475v-76.297c-20.122 14.253-49.467 24.314-76.297 24.314-49.467 0-81.327-31.86-81.327-85.52V178.586h157.624V106.48h-157.624V0h-83.005v106.48h-81.327v72.105h81.327v191.161c0 93.904 54.498 158.463 156.786 158.463zM1920 705.956V311.056c0-122.41-94.742-214.637-218.83-214.637-124.925 0-218.829 97.257-218.829 214.637 0 124.087 90.55 216.314 214.637 216.314 55.337 0 106.48-24.314 140.018-62.043v240.628Zm-218.83-256.558c-76.296 0-135.825-62.882-135.825-137.502 0-75.459 59.529-136.664 135.826-136.664 77.135 0 135.825 61.205 135.825 136.664 0 74.62-58.69 137.502-135.825 137.502z"
    aria-label=":attq" />
</svg>
