<svg xmlns="http://www.w3.org/2000/svg" version="1.0" viewBox="0 0 389 389" fill="currentColor">
  <path
    d="M225.7 32.3c-5.3 1.7-10.6 6.3-12.8 11.1-1.6 3.6-1.9 6.8-1.9 27.7 0 19.4.3 23.9 1.4 24.9.8.6 2.2 3.1 3.2 5.5 2 5.2 1.4 10.3-2 18.6l-2.3 5.6 4.1-.1c2.3 0 5.3.3 6.9.8l2.7.8V76h136v221H225v-47.8l-4.7 1.4c-2.7.8-5.8 1.3-7 1.1l-2.3-.4v36.6c0 36.2 0 36.7 2.3 41.6 1.6 3.3 3.8 6 6.7 8l4.3 3h137.5l4.3-3c2.3-1.7 5.3-5 6.6-7.4l2.3-4.4V186.3c0-135.2-.1-139.5-1.9-143.1-2.6-5.1-6.8-8.8-12-10.7-3.7-1.3-13.1-1.5-68-1.4-45.6 0-64.7.4-67.4 1.2zm82.1 20.9c.3 1.7-.9 1.8-14.2 1.8-14 0-14.6-.1-14.6-2 0-2 .5-2 14.2-1.8 12.7.3 14.3.5 14.6 2zm-5.7 256.4c5.7 5.5 5.9 13.3.3 18.9-10.7 10.8-27.9-2-20.9-15.6 3.8-7.3 14.6-9.1 20.6-3.3z" />
  <path
    d="M111.5 64.9c-11.6 3-19.9 12.1-29.9 32.4l-7.3 14.8-2.6-3.1c-2.6-3-4.7-8.7-4.7-12.5 0-1.1.9-3.9 2-6.2 1.9-4.3 5-6.4 11.3-7.8 2.4-.5 2.7-1 2.7-4.4 0-4.9-3.6-9.5-8.7-11.2-4.7-1.5-16.9-.7-20.9 1.4-4.7 2.4-9.4 7.6-11.8 12.7-2.9 6.5-2.9 19.7.1 26.2 3.8 8.4 13.9 16.7 24.6 20.2 1.7.5 1.7.8.2 3.7-1.3 2.5-2.1 3-3.8 2.4-13.2-4.1-22.9-4.3-31.1-.6-21.6 9.5-20.2 41.2 2 47.7 12.6 3.6 25.3-2 34.6-15.4l3-4.4 5.7 5.9c10.1 10.7 20.8 14.8 31.6 12.4 6.3-1.4 13.6-7.3 19-15.4l3.3-4.9 1.1 5.2c2.7 12.5 9.7 17.8 19.9 15 3.2-.8 4.9-2.1 7.1-5.4 1.7-2.4 4.4-4.9 6.1-5.6 2-.8 4.2-3.1 6.1-6.4l2.9-5.1v9.3l4.1.7c4.8.8 10.9 6.3 10.9 9.9 0 3.2.6 3.5 4.8 2.3 6.3-1.9 13-9.8 20.5-24.4 3.7-7.2 6.7-13.8 6.7-14.7 0-.9-1.1-2.2-2.5-2.8-2.3-1-2.8-.8-6.3 3-5.7 6.2-13.5 7.2-16 2-1.6-3.5-.6-7.8 5-20.1 4.9-10.9 5.7-15.6 3.2-18.1-2.3-2.4-7.2-1.6-11.7 1.8-3.8 2.9-6.9 3.3-8.7 1.2-2.4-3-9.7-4.9-15.6-4.2-12.5 1.5-23.3 10.2-30 24.4-2 4.2-4.2 9.1-5 10.7-1.9 4-9.5 9-16.7 11-5.9 1.7-17.7 2.2-21.9 1-4.5-1.4-13.8-5.8-13.8-6.6 0-.4 1.2-3.5 2.6-6.8l2.7-6.1h5.6c12.9 0 25.8-5.1 35.1-13.7 16.4-15.1 18.6-41 4.2-49.1-4.5-2.5-14.6-3.7-19.7-2.3zm3.1 28.6c2.8 4.4-1.4 14-8.3 18.8-3.9 2.7-12.8 5.6-13.8 4.5-1.1-1.1 7.9-18.1 11.6-22 4.3-4.6 8-5 10.5-1.3zM174 127c2.6 2.6 2.7 9.4 0 13.7-2.4 4-5.7 6.2-10.3 7-7.3 1.1-11-7-7-15.4 3.1-6.7 12.9-9.7 17.3-5.3zM55.1 141.6c3.7 1.9 3.4 3.3-1.3 5.9-3 1.6-4 1.7-6.2.7-1.7-.8-2.6-1.9-2.6-3.5 0-4.7 4.4-6.1 10.1-3.1zM220.6 165.7c-2.1 3.7-5.2 8.4-6.7 10.4-2.1 2.6-2.9 4.8-2.9 7.5.1 3.8.1 3.8 3.1-3.2 1.7-4.2 4.6-8.7 7-11.1 3.3-3.4 4-4.7 3.7-7.3-.3-3.1-.4-3-4.2 3.7z" />
  <path
    d="M226.7 173.1c-2.3 1.3-7.1 10.9-9.2 18.5-1 3.2-2.1 6.3-2.6 6.8-.4.5-2.1-.3-3.9-1.8-2-1.6-4.3-2.6-6.3-2.6-9.9 0-16.9 5.5-23 18-3.3 6.6-4.8 8.7-7 9.5-6.2 2.1-8.1-2.9-4.8-12.8 2.6-7.5 2.8-13.5.4-14.4-4.2-1.6-10.3 5.9-14 17.5-2 6.2-6.1 10.2-10.4 10.2-1.6 0-2.9-.4-2.9-.9s1.2-3.5 2.6-6.7c3-6.9 4.2-15.1 2.5-18.2-.8-1.6-2.1-2.2-4.4-2.2-6.9.1-9.9 5.6-9.6 17.7.2 7.9 0 8.8-2.1 10.5-2.9 2.3-7.2 2.3-9.3 0-2.2-2.5-2.1-6.6.4-14.7 2.5-8.2 2.3-12.9-.8-13.3-3.2-.5-7.2 5.2-11.3 16-3.9 10.1-6.4 12.7-11.3 11.4-2.3-.5-2.7-1.1-2.7-4.5 0-2.1.7-5.8 1.6-8.2 4.6-13-6.7-19.5-18.3-10.5-6.3 4.9-6.3 4.9-7.7-1.7-.7-3.1-3.5-3.6-5.8-1-2.2 2.5-5.2 8.9-7.3 15.3-2.4 7.5-4.5 10.1-10.7 13.5-6.7 3.7-16.2 4.2-19.7 1.1-3.8-3.5-2.7-4.3 5.2-3.9 6.3.4 7.6.2 10.6-1.9 9.8-6.7 10.7-18.4 1.8-23.8-7.5-4.6-20.1-.7-26.8 8.4-9.7 12.8-9.2 31.5.9 37.8 2.8 1.7 5.1 2.3 9.7 2.2 7.3 0 13-2.6 19.5-9l4.5-4.3-.3 4.4c-.3 3.7 0 4.8 2.2 6.9 3.1 3.2 6.7 3.3 10.1.3 2.3-2 2.7-3.2 3.4-11.8 1-12.7 4.6-18.9 10.9-18.9 4.1 0 4.7 2.5 2.3 10.4-2.5 8.7-2.7 16.3-.6 19.3 4.1 5.8 14.8 2.8 21.3-5.8l3.6-4.9 1.2 4.1c1.5 5.1 4.7 8.6 8.5 9.4 4.1.9 11.1-2.7 15.4-8 3.3-4 3.8-4.2 7.8-3.8 2.6.3 5.7-.1 8-1l3.7-1.6v3c0 4.8 2.6 9.8 5.7 11 5.7 2.1 11.9-.8 17.2-8.2l2.7-3.7 1.2 4.4c.9 3.2 2.1 5 4.5 6.4 6.9 4.2 13.7 1 20.3-9.7l2.3-3.8.1 3.3c.1 12.9 10.7 16 19.8 5.7l4-4.5.6 3.4c2 10.6 15.6 9.3 22.7-2.1l2.3-3.7.6 2.9c2.8 13.4 15.1 13.8 23.9.7l3.6-5.3.5 5.1c.5 4.1 1.2 5.8 3.3 7.6 1.6 1.3 3.7 2.4 4.8 2.4 3.5 0 8.4-2.6 11.3-6 3.1-3.7 10.6-18.2 10.6-20.4 0-2.9-2.1-2.7-5.6.4-2.7 2.3-4.4 3-6.7 2.8-2.8-.3-3.2-.7-3.5-3.8-.2-2.3.7-5.9 2.8-10.6 3.6-8.3 3.7-12.7.3-13.2-1.3-.2-3.7.7-5.4 1.9l-3.1 2.2-3.8-2.2c-7.5-4.2-16.6-1.8-23.8 6.4-2.3 2.7-5 7-6 9.8-2.1 6-5.3 9.7-8.5 9.7-5.2 0-6-4.7-2.6-14.7 2.6-7.8 2.3-12.7-.9-13.1-3.7-.6-8.5 5.2-12.1 14.8-4.1 10.6-6.3 13.2-11.1 12.8-5.6-.5-5.2-3.5 3.5-25.8 8.2-20.9 8.7-24 3.7-24-1.5 0-3.5.5-4.5 1.1zM38.8 206.2c3 3-.1 8.8-4.8 8.8-5 0-6.6-4.4-3-8 2.2-2.2 6-2.6 7.8-.8zm167 4c2.3 2.3 1.4 7.7-1.7 10.9-7.3 7.2-15.2-1.1-8.5-9 2.8-3.3 7.8-4.3 10.2-1.9zm78 0c2.9 2.9-.4 11.9-4.8 13.3-5.4 1.7-9.1-2.1-7.6-8 1.3-5.3 9.1-8.6 12.4-5.3z" />
  <path
    d="M168.5 174.2c-3.3 1.7-4.5 3.9-4.5 7.9 0 2.8.6 4.2 2.2 5.3 2.5 1.8 10 2.1 12.8.6 2.6-1.4 4.3-7.1 3-10.4-1.5-4.1-8.8-6-13.5-3.4zM246.5 173.9c-3.2 1.4-4.5 3.5-4.7 7.5-.2 5.4 2.3 7.6 8.8 7.6 4.5 0 5.6-.4 7.3-2.6 2.4-3 2.7-8.1.8-10.8-1.5-2.1-9-3.1-12.2-1.7zM61 261v7h-5c-4.6 0-5 .2-5 2.4 0 2.3.5 2.5 4.8 2.8l4.7.3.3 15.7.3 15.8h4.8l.3-15.8.3-15.7 4.3-.3c3.7-.3 4.2-.6 4.2-2.8 0-2.2-.4-2.4-4.5-2.4H66v-7c0-6.8-.1-7-2.5-7s-2.5.2-2.5 7zM97.5 267.5c-.5.2-2.2.6-3.7.9-6.4 1.4-12.7 10.2-12.8 17.9 0 10.7 8.1 18.7 19 18.7 8.3 0 14.4-4 17.5-11.3 4.4-10.6-1.6-22.5-13-25.6-4.1-1.1-5.2-1.2-7-.6zm9.2 7.5c4.5 2.7 6.5 6.2 6.5 11.5 0 12.7-16.1 18.1-23.8 8-3.1-4.1-3.5-11.1-.9-15.1 2.3-3.6 7.4-6.4 11.5-6.4 1.9 0 4.9.9 6.7 2zM168 267.9c-5.4 1.7-9.1 4.3-11.8 8.3-2.2 3.4-2.7 5.3-2.7 10.3 0 5.2.5 6.8 2.9 10.3 6.9 10 22.4 11.1 29.9 2.3 1.5-1.8 2.7-3.7 2.7-4.2 0-1.6-5.7-1-7.1.8-1.7 2-7 4.3-10 4.3-3.6 0-9-3.2-11-6.4-1-1.7-1.9-3.4-1.9-3.9 0-.4 7.2-.7 16-.7h16v-3.4c0-6.5-4.1-13-10-16.1-3.4-1.7-10-2.5-13-1.6zm13.7 9.5c5.7 6.2 5.1 6.6-9.7 6.6-7.1 0-13-.3-13-.8 0-1.6 3.9-6.5 6.6-8.4 2.2-1.4 4.1-1.8 7.8-1.5 4.2.4 5.5 1 8.3 4.1zM24.8 269.6c-3.4 1.8-4.8 4.3-4.8 8.6 0 5.3 2.3 7.5 10.3 9.9 4 1.2 8 2.9 9 3.7 2.1 1.9 2.2 5.5.1 7.6-3.3 3.3-14.4 1-14.4-3 0-.9-1.1-1.4-3-1.4-3.5 0-3.7 1.3-1 5.7 2.8 4.7 10.3 6.5 18.2 4.3 4.8-1.4 7.8-5.2 7.8-10.1 0-5.6-3.1-8.5-11.5-10.9-7.3-2.1-10.8-4.9-9.8-7.8 1.6-4.7 7.6-5.5 12.1-1.7 3.8 3.2 8.3 3.4 7.5.5-.3-1.1-1.9-3.1-3.5-4.5-2.4-2-4-2.5-8.6-2.5-3.1.1-6.9.7-8.4 1.6zM129.7 268.7c-.4.3-.7 8.7-.7 18.5V305h6v-11c0-15 2.8-20.6 9.8-19.6 3.1.5 3.2.3 3.2-3 0-3.2-.2-3.4-3.6-3.4-2.7 0-4.3.7-6.5 3.1l-2.9 3.1v-3.1c0-2.6-.4-3.1-2.3-3.1-1.3 0-2.7.3-3 .7z" />
</svg>
